<?xml version="1.0" encoding="iso-8859-1"?>
<!-- Generator: Adobe Illustrator 19.0.0, SVG Export Plug-In . SVG Version: 6.00 Build 0)  -->
<svg xmlns="http://www.w3.org/2000/svg" xmlns:xlink="http://www.w3.org/1999/xlink" version="1.1" id="Layer_1" x="0px" y="0px" viewBox="0 0 430.681 430.681" style="enable-background:new 0 0 430.681 430.681;" xml:space="preserve" width="512" height="512">
<g id="_x34_6._Compass_1_">
	<g id="XMLID_94_">
		<g>
			<g>
				<path style="fill:#F2D59F;" d="M354.48,325c4.54,7.87,6.7,16.47,6.7,24.95c0,17.28-8.96,34.09-25,43.35l-0.01-0.01l-53.61-92.86      l-65.27-113.05c18.25-0.66,34.15-10.52,43.21-25.07l0.08,0.05l80,138.56L354.48,325z"/>
			</g>
			<g>
				<path style="fill:#FF7124;" d="M213.39,187.38c-18.26-0.64-34.18-10.49-43.25-25.05c-5.11-8.16-8.05-17.81-8.05-28.14      c0-22.83,14.38-42.31,34.58-49.86c5.8-2.17,12.08-3.36,18.64-3.36c6.56,0,12.85,1.19,18.65,3.36      c20.2,7.56,34.57,27.03,34.57,49.86c0,10.32-2.93,19.96-8.03,28.12c-9.06,14.55-24.96,24.41-43.21,25.07      c-0.66,0.03-1.32,0.04-1.98,0.04C214.67,187.42,214.03,187.41,213.39,187.38z M234.77,134.19c0-10.74-8.71-19.46-19.46-19.46      s-19.46,8.72-19.46,19.46c0,10.75,8.71,19.47,19.46,19.47S234.77,144.94,234.77,134.19z"/>
			</g>
			<g>
				<path style="fill:#8ECAC1;" d="M234.77,10v72.17l-0.81,2.16c-5.8-2.17-12.09-3.36-18.65-3.36c-6.56,0-12.84,1.19-18.64,3.36      l-0.82-2.16V10H234.77z"/>
			</g>
			<g>
				<path style="fill:#8ECAC1;" d="M215.31,114.73c10.75,0,19.46,8.72,19.46,19.46c0,10.75-8.71,19.47-19.46,19.47      s-19.46-8.72-19.46-19.47C195.85,123.45,204.56,114.73,215.31,114.73z"/>
			</g>
			<g>
				<path style="fill:#F2D59F;" d="M213.39,187.38l-65.55,113.54l-53.33,92.37c-16.04-9.26-25.01-26.06-25.01-43.34      c0-8.48,2.16-17.08,6.71-24.96l13.89-24.07l80.01-138.57l0.03-0.02C179.21,176.89,195.13,186.74,213.39,187.38z"/>
			</g>
		</g>
		<g>
			<g>
				<path style="fill:#5E2A41;" d="M215.31,197.42c-0.776,0-1.552-0.013-2.327-0.048c-21.006-0.755-40.193-11.875-51.331-29.754      c-6.252-9.983-9.562-21.549-9.562-33.428c0-26.242,16.508-50.044,41.079-59.227c7.079-2.649,14.53-3.993,22.141-3.993      c7.618,0,15.072,1.344,22.155,3.995l0,0c24.562,9.192,41.065,32.993,41.065,59.226c0,11.866-3.303,23.422-9.55,33.42      c-11.13,17.872-30.321,29.003-51.329,29.764C216.931,197.406,216.121,197.42,215.31,197.42z M215.31,90.97      c-5.21,0-10.302,0.917-15.135,2.726c-16.8,6.279-28.085,22.552-28.085,40.494c0,8.12,2.256,16.016,6.525,22.833      c7.634,12.254,20.76,19.859,35.125,20.363c0.038,0.001,0.076,0.002,0.114,0.004c0.994,0.046,1.989,0.044,2.984,0      c14.44-0.523,27.556-8.135,35.173-20.366c4.268-6.829,6.519-14.72,6.519-22.834c0-17.936-11.282-34.21-28.075-40.494      C225.622,91.887,220.527,90.97,215.31,90.97z"/>
			</g>
			<g>
				<path style="fill:#5E2A41;" d="M215.31,162.66c-15.693,0-28.46-12.771-28.46-28.47c0-15.693,12.767-28.46,28.46-28.46      c15.693,0,28.46,12.767,28.46,28.46C243.77,149.888,231.003,162.66,215.31,162.66z M215.31,123.73      c-5.768,0-10.46,4.692-10.46,10.46c0,5.773,4.692,10.47,10.46,10.47c5.767,0,10.46-4.697,10.46-10.47      C225.77,128.422,221.078,123.73,215.31,123.73z"/>
			</g>
			<g>
				<path style="fill:#5E2A41;" d="M234.77,92.17c-5.523,0-10-4.477-10-10V20h-18.92v62.17c0,5.523-4.477,10-10,10      c-5.523,0-10-4.477-10-10V10c0-5.523,4.477-10,10-10h38.92c5.522,0,10,4.477,10,10v72.17      C244.77,87.693,240.292,92.17,234.77,92.17z"/>
			</g>
			<g>
				<path style="fill:#5E2A41;" d="M94.501,403.292c-1.697,0-3.415-0.432-4.991-1.341c-18.511-10.687-30.01-30.612-30.01-52      c0-10.48,2.784-20.841,8.05-29.961l13.888-24.067l80.011-138.573c2.762-4.782,8.877-6.42,13.661-3.66      c4.783,2.762,6.421,8.877,3.66,13.661L98.76,305.92l-13.888,24.067c-3.515,6.086-5.371,12.988-5.371,19.962      c0,10.85,4.435,21.135,11.989,28.573L204.73,182.38c0.101-0.175,0.208-0.347,0.319-0.516c3.047-4.607,9.26-5.886,13.868-2.84      c4.497,2.975,5.819,8.945,3.044,13.513L103.17,398.29C101.318,401.498,97.956,403.292,94.501,403.292z"/>
			</g>
			<g>
				<path style="fill:#5E2A41;" d="M336.19,403.301c-3.457,0-6.818-1.793-8.67-5.002c-2.762-4.783-1.122-10.899,3.66-13.66      c12.337-7.122,20-20.414,20-34.689c0-6.973-1.854-13.872-5.362-19.953L251.92,167.36c-2.762-4.783-1.123-10.899,3.66-13.66      c4.783-2.762,10.899-1.122,13.66,3.66l93.9,162.641c5.26,9.117,8.039,19.473,8.039,29.949c0,21.398-11.495,41.328-30,52.011      C339.605,402.869,337.886,403.301,336.19,403.301z"/>
			</g>
			<g>
				<path style="fill:#5E2A41;" d="M336.18,403.292c-3.457,0-6.818-1.794-8.67-5.001L208.63,192.38      c-0.116-0.201-0.226-0.407-0.328-0.616c-2.421-4.964-0.365-10.96,4.599-13.382c4.807-2.348,10.577-0.494,13.132,4.141      L344.831,388.29c2.762,4.783,1.123,10.899-3.66,13.66C339.595,402.859,337.876,403.292,336.18,403.292z"/>
			</g>
			<g>
				<path style="fill:#5E2A41;" d="M78.681,430.681c-1.697,0-3.417-0.432-4.992-1.342c-4.783-2.762-6.42-8.878-3.658-13.661      l15.82-27.39c2.762-4.782,8.879-6.42,13.661-3.658c4.783,2.762,6.42,8.878,3.658,13.661l-15.82,27.39      C85.497,428.888,82.136,430.681,78.681,430.681z"/>
			</g>
			<g>
				<path style="fill:#5E2A41;" d="M352.001,430.681c-3.456,0.001-6.817-1.793-8.67-5.001l-15.7-27.189      c-2.343-3.849-1.853-8.94,1.474-12.267c3.906-3.905,10.233-3.91,14.138-0.005l0.01,0.01c0.617,0.618,1.151,1.314,1.589,2.071      l15.811,27.38c2.762,4.783,1.123,10.898-3.659,13.66C355.417,430.249,353.697,430.681,352.001,430.681z"/>
			</g>
			<g>
				<path style="fill:#5E2A41;" d="M281.71,310.92H147.84c-5.523,0-10-4.477-10-10c0-5.523,4.477-10,10-10h133.87      c5.522,0,10,4.477,10,10C291.71,306.443,287.233,310.92,281.71,310.92z"/>
			</g>
			<g>
				<path style="fill:#5E2A41;" d="M90.1,310.92H52.94c-5.523,0-10-4.477-10-10c0-5.523,4.477-10,10-10H90.1c5.523,0,10,4.477,10,10      C100.1,306.443,95.623,310.92,90.1,310.92z"/>
			</g>
			<g>
				<path style="fill:#5E2A41;" d="M377.741,310.92h-37.16c-5.522,0-10-4.477-10-10c0-5.523,4.478-10,10-10h37.16      c5.522,0,10,4.477,10,10C387.741,306.443,383.263,310.92,377.741,310.92z"/>
			</g>
		</g>
	</g>
</g>















</svg>
